<?xml version="1.0" standalone="no"?>
<!DOCTYPE svg PUBLIC "-//W3C//DTD SVG 20010904//EN"
 "http://www.w3.org/TR/2001/REC-SVG-20010904/DTD/svg10.dtd">
<svg version="1.0" xmlns="http://www.w3.org/2000/svg"
 width="512.000000pt" height="512.000000pt" viewBox="0 0 512.000000 512.000000"
 preserveAspectRatio="xMidYMid meet">
<metadata>
Created by potrace 1.11, written by Peter Selinger 2001-2013
</metadata>
<g transform="translate(0.000000,512.000000) scale(0.100000,-0.100000)"
fill="#000000" stroke="none">
<path d="M455 5113 c-96 -13 -196 -64 -271 -140 -56 -55 -88 -110 -120 -203
-18 -53 -19 -124 -19 -2210 0 -2086 1 -2157 19 -2210 58 -168 157 -271 318
-327 51 -17 138 -18 2178 -18 2040 0 2127 1 2178 18 161 56 260 159 318 327
18 53 19 124 19 2210 0 2086 -1 2157 -19 2210 -57 166 -151 264 -312 326 -47
18 -119 19 -2154 20 -1158 1 -2118 -1 -2135 -3z m3762 -548 c164 -49 291 -189
323 -354 14 -74 14 -3228 0 -3302 -32 -165 -159 -305 -323 -354 -44 -13 -257
-15 -1657 -15 -1400 0 -1613 2 -1657 15 -164 49 -291 189 -323 354 -14 74 -14
3228 0 3302 31 163 158 304 319 353 71 22 3244 23 3318 1z"/>
<path d="M920 4369 c-64 -29 -117 -84 -140 -146 -20 -53 -20 -80 -20 -1663 0
-1583 0 -1610 20 -1663 23 -62 76 -117 140 -146 45 -20 58 -21 1640 -21 1582
0 1595 1 1640 21 64 29 117 84 140 146 20 53 20 80 20 1663 0 1583 0 1610 -20
1663 -23 62 -76 117 -140 146 -45 20 -58 21 -1640 21 -1582 0 -1595 -1 -1640
-21z m850 -1344 l0 -1035 -260 0 -260 0 0 1035 0 1035 260 0 260 0 0 -1035z"/>
</g>
</svg>
